<?xml version="1.0" encoding="UTF-8" standalone="no"?>
<svg width="300" height="300" viewBox="0 0 300 300" xmlns="http://www.w3.org/2000/svg">
  <path d="M150,20 C160,10 180,5 200,15 C220,25 230,40 235,60 C240,80 235,100 255,105 C275,110 290,130 290,155 C290,180 275,200 260,210 C245,220 235,235 230,250 C225,265 210,280 180,280 C150,280 130,265 120,250 C110,235 90,230 70,220 C50,210 20,190 15,160 C10,130 30,105 45,90 C60,75 80,70 90,50 C100,30 120,20 150,20 Z" fill="#CD853F" />
  <circle cx="100" cy="140" r="15" fill="#000" />
  <circle cx="110" cy="135" r="5" fill="#FFF" />
  <circle cx="200" cy="140" r="15" fill="#000" />
  <circle cx="210" cy="135" r="5" fill="#FFF" />
  <ellipse cx="150" cy="180" rx="30" ry="15" fill="#000" />
  <path d="M150,170 Q170,190 190,170" fill="none" stroke="#000" stroke-width="5" />
  <path d="M110,170 Q130,190 150,170" fill="none" stroke="#000" stroke-width="5" />
  <path d="M90,115 Q110,100 130,115" fill="none" stroke="#000" stroke-width="5" />
  <path d="M170,115 Q190,100 210,115" fill="none" stroke="#000" stroke-width="5" />
  <path d="M150,240 C170,230 190,230 200,240 C210,250 200,265 180,270 C160,275 140,275 120,270 C100,265 90,250 100,240 C110,230 130,230 150,240 Z" fill="#E24C4C" />
  <ellipse cx="75" cy="75" rx="25" ry="35" transform="rotate(-20 75 75)" fill="#CD853F" />
  <ellipse cx="225" cy="75" rx="25" ry="35" transform="rotate(20 225 75)" fill="#CD853F" />
</svg>