<?xml version="1.0" encoding="UTF-8" standalone="no"?>
<svg width="300" height="300" viewBox="0 0 300 300" xmlns="http://www.w3.org/2000/svg">
  <path d="M150,30 C170,20 190,15 210,25 C230,35 240,60 245,80 C250,100 260,110 270,130 C280,150 285,170 280,190 C275,210 260,220 245,230 C230,240 220,260 190,270 C160,280 130,270 110,260 C90,250 70,235 55,220 C40,205 30,185 25,160 C20,135 25,110 40,90 C55,70 70,60 85,45 C100,30 130,40 150,30 Z" fill="#B5651D" />
  <circle cx="110" cy="130" r="12" fill="#000" />
  <circle cx="118" cy="125" r="4" fill="#FFF" />
  <circle cx="190" cy="130" r="12" fill="#000" />
  <circle cx="198" cy="125" r="4" fill="#FFF" />
  <path d="M130,180 C140,190 150,195 160,190 C170,185 180,180 190,175" fill="none" stroke="#000" stroke-width="5" stroke-linecap="round" />
  <ellipse cx="150" cy="200" rx="25" ry="15" fill="#E34F4F" />
  <path d="M150,190 C160,195 170,195 180,190" fill="none" stroke="#000" stroke-width="3" />
  <ellipse cx="80" cy="80" rx="30" ry="40" transform="rotate(-30 80 80)" fill="#B5651D" />
  <ellipse cx="220" cy="80" rx="30" ry="40" transform="rotate(30 220 80)" fill="#B5651D" />
  <path d="M100,110 Q120,95 140,110" fill="none" stroke="#000" stroke-width="4" />
  <path d="M160,110 Q180,95 200,110" fill="none" stroke="#000" stroke-width="4" />
  <ellipse cx="150" cy="160" rx="40" ry="20" fill="#8B4513" opacity="0.3" />
</svg>