<?xml version="1.0" encoding="UTF-8" standalone="no"?>
<svg width="300" height="300" viewBox="0 0 300 300" xmlns="http://www.w3.org/2000/svg">
  <path d="M150,40 C170,30 195,25 215,35 C235,45 250,65 255,85 C260,105 255,125 265,145 C275,165 280,185 270,205 C260,225 240,235 220,245 C200,255 180,270 155,275 C130,280 105,270 85,255 C65,240 50,220 40,195 C30,170 35,145 45,120 C55,95 70,75 90,60 C110,45 130,50 150,40 Z" fill="#8B8989" />
  <circle cx="120" cy="125" r="14" fill="#000" />
  <circle cx="128" cy="120" r="5" fill="#FFF" />
  <circle cx="180" cy="125" r="14" fill="#000" />
  <circle cx="188" cy="120" r="5" fill="#FFF" />
  <ellipse cx="150" cy="175" rx="20" ry="12" fill="#000" />
  <path d="M130,165 Q150,180 170,165" fill="none" stroke="#000" stroke-width="4" />
  <ellipse cx="95" cy="85" rx="25" ry="30" transform="rotate(-15 95 85)" fill="#8B8989" />
  <ellipse cx="205" cy="85" rx="25" ry="30" transform="rotate(15 205 85)" fill="#8B8989" />
  <path d="M110,105 Q130,95 150,105" fill="none" stroke="#000" stroke-width="3" />
  <path d="M150,105 Q170,95 190,105" fill="none" stroke="#000" stroke-width="3" />
  <path d="M150,190 C160,200 170,205 180,200 C190,195 195,190 200,180" fill="none" stroke="#000" stroke-width="3" />
  <path d="M150,190 C140,200 130,205 120,200 C110,195 105,190 100,180" fill="none" stroke="#000" stroke-width="3" />
  <path d="M150,220 C165,210 185,215 195,225 C205,235 195,250 175,255 C155,260 145,260 125,255 C105,250 95,235 105,225 C115,215 135,210 150,220 Z" fill="#E55E5E" />
</svg>