<?xml version="1.0" encoding="UTF-8" standalone="no"?>
<svg width="300" height="300" viewBox="0 0 300 300" xmlns="http://www.w3.org/2000/svg">
  <path d="M150,30 C175,20 195,25 215,40 C235,55 245,75 250,100 C255,125 260,150 255,175 C250,200 235,220 215,235 C195,250 175,265 150,270 C125,275 100,265 80,250 C60,235 45,215 35,190 C25,165 20,140 30,115 C40,90 60,70 80,50 C100,30 125,40 150,30 Z" fill="#F0C080" />
  <circle cx="115" cy="120" r="15" fill="#111" />
  <circle cx="125" cy="115" r="5" fill="#FFF" />
  <circle cx="185" cy="120" r="15" fill="#111" />
  <circle cx="195" cy="115" r="5" fill="#FFF" />
  <path d="M150,170 C165,185 185,185 200,170" fill="none" stroke="#111" stroke-width="5" />
  <ellipse cx="150" cy="195" rx="30" ry="15" fill="#111" />
  <path d="M150,180 C160,190 170,195 180,190" fill="none" stroke="#111" stroke-width="3" />
  <ellipse cx="90" cy="70" rx="30" ry="40" transform="rotate(-20 90 70)" fill="#F0C080" />
  <ellipse cx="210" cy="70" rx="30" ry="40" transform="rotate(20 210 70)" fill="#F0C080" />
  <path d="M105,100 Q125,85 145,100" fill="none" stroke="#111" stroke-width="4" />
  <path d="M155,100 Q175,85 195,100" fill="none" stroke="#111" stroke-width="4" />
  <path d="M70,140 Q90,130 110,140" fill="none" stroke="#111" stroke-width="3" />
  <path d="M190,140 Q210,130 230,140" fill="none" stroke="#111" stroke-width="3" />
  <path d="M150,230 C170,225 190,225 205,235 C220,245 215,260 195,270 C175,280 125,280 105,270 C85,260 80,245 95,235 C110,225 130,225 150,230 Z" fill="#E66767" />
  <path d="M80,220 Q100,210 120,220" fill="none" stroke="#111" stroke-width="3" />
  <path d="M180,220 Q200,210 220,220" fill="none" stroke="#111" stroke-width="3" />
</svg>