<?xml version="1.0" encoding="UTF-8" standalone="no"?>
<svg width="300" height="300" viewBox="0 0 300 300" xmlns="http://www.w3.org/2000/svg">
  <path d="M150,20 C180,10 205,15 225,35 C245,55 250,80 255,105 C260,130 265,155 250,180 C235,205 220,220 195,235 C170,250 145,265 120,255 C95,245 75,225 55,200 C35,175 25,145 30,115 C35,85 50,60 75,40 C100,20 120,30 150,20 Z" fill="#222" />
  <circle cx="125" cy="115" r="18" fill="#FFF" />
  <circle cx="125" cy="115" r="8" fill="#000" />
  <circle cx="175" cy="115" r="18" fill="#FFF" />
  <circle cx="175" cy="115" r="8" fill="#000" />
  <ellipse cx="150" cy="170" rx="30" ry="15" fill="#F08080" />
  <path d="M130,170 Q150,185 170,170" fill="none" stroke="#111" stroke-width="4" />
  <ellipse cx="95" cy="65" rx="35" ry="25" transform="rotate(-25 95 65)" fill="#222" />
  <ellipse cx="205" cy="65" rx="35" ry="25" transform="rotate(25 205 65)" fill="#222" />
  <path d="M105,95 Q125,80 145,95" fill="none" stroke="#CCC" stroke-width="3" />
  <path d="M155,95 Q175,80 195,95" fill="none" stroke="#CCC" stroke-width="3" />
  <path d="M150,210 C165,200 185,200 200,210 C215,220 210,235 190,245 C170,255 130,255 110,245 C90,235 85,220 100,210 C115,200 135,200 150,210 Z" fill="#F08080" />
  <path d="M85,145 Q110,135 135,145" fill="none" stroke="#CCC" stroke-width="3" />
  <path d="M165,145 Q190,135 215,145" fill="none" stroke="#CCC" stroke-width="3" />
  <path d="M130,220 Q150,235 170,220" fill="none" stroke="#111" stroke-width="3" />
</svg>